<svg id="SVGRoot" width="800" height="1123.1" version="1.1" viewBox="0 0 800 1123.1" xmlns="http://www.w3.org/2000/svg">
 <path d="m757.63 2.8485c-7.2666 0.96971-20.334 16.267-26.919 23.308-52.44 51.143-103.54 103.4-155.83 154.79-83.12 84.11-167.39 167.34-249.85 252.58-16.565 8.2295-11.388 26.317-12.004 41.227 29.813 32.373 64.201 60.368 95.203 91.672 54.636 50.002 107.13 102.49 162.42 152.07 27.334 6.7601 38.767-25.527 58.172-37.994 37.838-38.359 76.308-76.208 115.09-113.91 30.152-17.567 35.56-48.583 30.347-79.749-1.6641-70.339-3.5678-141.61-4.8495-212.28-2.5249-84.295-4.6092-168.68-7.6355-253.11 2.4809-14.611 0.20956-19.178-4.1503-18.596zm-34.44 100.79c2.1732 30.321 2.1033 62.857-0.13735 93.151-67.751 71.757-135.45 143.78-202.47 216.12-2.7012 2.2511-7.4498-0.61764-5.7782-4.1044 1.4913-33.549-3.5466-69.05 2.9694-101.16 52.593-52.897 104.06-107.23 156.67-160.28 15.623-14.72 29.574-36.17 48.748-43.726zm-0.18373 171.79c2.4705 30.485 0.16965 62.809 0.81399 93.999-69.483 71.898-139.5 143.82-209.75 215.36-5.3979-25.484-2.6532-65.769 0.24066-95.375 52.869-57.558 108.37-112.79 160.82-170.61 16.471-12.797 29.227-38.715 47.877-43.382zm-259.56 86.513c3.9958 27.257 0.50305 57.255 1.7656 85.515 0.0687 30.328 6.4876 64.515-20.843 85.057-20.329-10.133-35.743-35.423-55.592-49.424-37.58-17.565-17.064-41.432 7.8418-58.665 22.618-20.116 42.415-46.852 66.828-62.483zm253.04 85.011c7.4601 0.5013 9.9842 18.37 7.0737 32.64 1.9532 18.405 4.9195 38.014-11.866 50.066-47.176 48.106-92.488 97.759-139.35 145.66-5.349 1.0268-8.0414-8.6426-10.937-12.267-4.9252-15.056-28.683-31.171-11.74-45.641 51.417-52.658 103.17-105.06 153.64-158.41 5.3871-8.9197 9.7934-12.277 13.184-12.049zm-515.91 40.895c-68.015 10.336-127.59 47.629-185.75 82.087-36.502 16.966 20.683 12.508 32.571 24.214 45.673 39.796 88.847 82.303 133.84 122.89 8.186 11.078 26.122 16.982 21.703 33.397 3.8462 34.921-1.9714 73.144 15.81 105.59 31.225 62.009 106.62 77.742 169.59 83.738 67.38 2.8121 136.2 2.8575 204.07 4.5629 58.047 57.696 114.05 117.64 172.46 174.81 19.674 5.4863 36.482-8.2444 31.448-28.868-41.984-44.538-86.444-86.954-128.27-131.55-77.176-75.625-151.53-153.99-228.37-230.3-54.892-57.731-112.5-113.16-168.11-170.55-23.529-23.22-45.419-49.403-71.001-70.026zm-27.584 47.04c10.515 0.13912 21.025 1.9748 31.23 5.8584 1.0185 45.801 2.399 93.252-0.74519 138.53-22.39-16.392-42.414-38.062-63.492-56.854-17.763-17.414-41.459-33.073-54.217-53.254 24.026-19.932 55.678-34.697 87.224-34.28zm83.509 70.221c30.942 32.009 62.69 64.031 92.406 97.37 4e-3 64.22 2.0347 129.46-0.90573 193.04-32.738 1.6828-63.603-17.586-81.927-43.91-21.914-24.145-8.0882-59.433-12.302-88.897 1.9744-51.979-4.5304-107.79 2.7286-157.61zm142.45 140.88c37.481 38.261 76.04 75.028 112.58 114.23 7.4393 11.672 29.084 19.762 23.159 35.369-46.954-0.41853-95.136 2.1058-141.49-1.0318-2.1796-34.043-0.30465-69.558-0.92863-104.17 3.6798-12.907-7.8519-43.028 6.6725-44.403z" fill="#7c7151" image-rendering="auto"/>
</svg>